Genre: Action
Language:English  http://www.imdb.com/title/tt1212442/
Source:1080p.BluRay.x264-SWAGGERHD


Format : Matroska
File size : 1.62 GiB
Duration : 1h 25mn
Overall bit rate : 2 716 Kbps


Video
Format settings, CABAC : Yes
Format settings, ReFrames : 4 frames
Format settings, GOP : M=1, N=4
Codec ID : V_MPEG4/ISO/AVC
Duration : 1h 25mn
Bit rate : 2 278 Kbps
Nominal bit rate : 2 400 Kbps
Width : 1 280 pixels
Height : 720 pixels
Display aspect ratio : 16:9
Frame rate mode : Variable
Frame rate : 23.976 fps
Color space : YUV
Chroma subsampling : 4:2:0
Bit depth : 8 bits
Scan type : Progressive
Bits/(Pixel*Frame) : 0.103
Stream size : 1.35 GiB (84%)
Writing library : x264


Audio
ID : 2
Format : AC-3
Format/Info : Audio Coding 3
Mode extension : CM (complete main)
Codec ID : A_AC3
Duration : 1h 25mn
Bit rate mode : Constant
Bit rate : 384 Kbps
Channel(s) : 6 channels
Channel positions : Front: L C R, Side: L R, LFE
Sampling rate : 48.0 KHz
Bit depth : 16 bits
Video delay : -1mn 5s
Stream size : 234 MiB (14%)
Language : English



Plot:
During a rescue operation in Iraq, Special Forces member Max Forrester is devastated when Sasha, his squad mate and fiance goes missing
 
http://shareimage.org/images/f6vmeliruim7dixncl.png 
http://shareimage.org/images/nofxr1cyctxvdp9efz2.png 
http://shareimage.org/images/2t5p9e2vnaueam59wvy2.png